<?xml version="1.0" standalone="no"?>
<!DOCTYPE svg PUBLIC "-//W3C//DTD SVG 20010904//EN"
 "http://www.w3.org/TR/2001/REC-SVG-20010904/DTD/svg10.dtd">
<svg version="1.0" xmlns="http://www.w3.org/2000/svg"
 width="4886.000000pt" height="3665.000000pt" viewBox="0 0 4886.000000 3665.000000"
 preserveAspectRatio="xMidYMid meet">

<g transform="translate(0.000000,3665.000000) scale(0.100000,-0.100000)"
fill="#000000" stroke="none">



<path fill="#b71a1f" d="M1896 24123 c-7 -7 -6 -8696 2 -11746 l4 -1688 41 -27 c22 -15 56
-37 76 -49 20 -12 52 -31 71 -43 19 -12 51 -31 71 -43 20 -12 49 -31 65 -41
16 -11 45 -30 65 -43 19 -12 39 -23 45 -23 5 0 22 -11 38 -25 16 -14 35 -25
41 -25 7 0 23 -9 36 -19 25 -20 62 -42 139 -86 25 -14 65 -39 90 -55 25 -16
56 -35 70 -42 14 -6 32 -18 41 -25 23 -19 130 -83 139 -83 4 0 14 -7 21 -16 8
-9 32 -25 55 -35 23 -9 45 -22 49 -28 3 -6 21 -18 38 -26 18 -8 52 -28 77 -45
25 -16 63 -39 85 -51 22 -12 42 -25 45 -29 3 -4 25 -18 48 -31 93 -51 104 -58
120 -71 9 -8 32 -20 50 -28 17 -7 32 -17 32 -22 0 -5 17 -16 38 -25 20 -8 39
-19 42 -23 3 -4 25 -18 48 -31 93 -51 104 -58 120 -71 17 -14 90 -58 97 -58 1
0 6 8 9 17 16 41 -1 5138 -23 6828 -5 388 -5 657 1 668 12 24 78 23 109 -2 14
-10 40 -26 59 -35 19 -9 58 -30 85 -46 28 -16 66 -37 85 -46 19 -9 45 -24 58
-34 13 -10 36 -21 52 -25 16 -3 34 -13 41 -21 6 -8 30 -23 53 -34 22 -11 82
-42 131 -70 50 -28 114 -62 143 -76 28 -14 52 -29 52 -34 0 -5 13 -11 30 -15
16 -3 39 -15 52 -25 13 -10 39 -25 58 -34 19 -9 58 -30 85 -46 28 -16 68 -38
90 -49 22 -12 63 -34 90 -50 28 -17 61 -35 75 -41 14 -7 36 -18 50 -25 14 -8
68 -35 120 -61 52 -27 100 -53 105 -60 6 -6 24 -15 40 -19 17 -3 39 -15 50
-25 11 -9 37 -23 57 -29 20 -7 42 -18 48 -26 6 -8 28 -19 48 -26 20 -6 42 -17
47 -24 6 -6 27 -17 47 -24 20 -7 42 -18 48 -26 6 -8 28 -19 48 -26 20 -6 43
-16 50 -22 13 -10 92 -52 279 -147 48 -24 99 -52 113 -61 14 -9 36 -20 50 -24
14 -4 34 -15 45 -25 11 -10 37 -23 57 -29 21 -7 40 -16 42 -20 5 -7 72 -42
166 -85 50 -24 91 -45 120 -61 14 -8 45 -24 70 -35 25 -12 52 -27 60 -34 8 -7
27 -16 42 -20 15 -3 33 -12 40 -20 7 -7 30 -18 50 -25 20 -7 47 -20 60 -30 13
-10 38 -23 57 -30 19 -6 42 -17 50 -25 9 -7 33 -19 54 -26 20 -6 37 -15 37
-20 0 -4 20 -15 45 -24 25 -8 57 -24 72 -35 14 -12 33 -21 43 -21 10 0 28 -8
41 -18 13 -11 67 -40 119 -66 52 -25 102 -50 110 -55 8 -5 31 -16 50 -25 19
-9 42 -20 50 -25 38 -22 144 -71 155 -71 7 0 18 -7 25 -15 7 -8 31 -20 54 -26
22 -6 50 -19 61 -29 11 -10 34 -21 52 -25 18 -3 42 -14 55 -24 13 -10 37 -21
54 -25 18 -4 40 -16 50 -27 9 -10 25 -19 34 -19 10 0 41 -13 71 -29 30 -15 65
-32 79 -36 14 -4 31 -12 38 -18 14 -11 98 -48 166 -73 21 -8 50 -24 64 -34 14
-11 32 -20 40 -20 9 0 34 -9 56 -19 100 -47 173 -79 196 -86 14 -4 43 -18 66
-31 22 -13 49 -24 59 -24 10 0 26 -6 34 -14 17 -15 120 -59 189 -81 23 -8 52
-21 64 -30 13 -8 29 -15 38 -15 9 0 42 -13 75 -30 33 -16 66 -30 73 -30 7 0
34 -11 60 -24 26 -13 61 -27 79 -30 17 -4 37 -13 43 -21 6 -7 27 -16 48 -20
20 -4 57 -17 82 -30 61 -31 147 -65 193 -76 20 -5 54 -18 75 -29 20 -11 46
-20 58 -20 11 0 42 -11 67 -24 25 -14 63 -28 84 -32 21 -3 52 -14 68 -24 17
-10 46 -21 65 -25 19 -4 45 -13 57 -21 11 -7 43 -18 70 -25 26 -6 62 -19 79
-29 17 -10 55 -23 83 -29 28 -6 62 -17 74 -25 12 -8 46 -19 75 -25 29 -6 65
-17 80 -25 15 -7 50 -18 77 -24 28 -6 68 -20 90 -32 21 -11 53 -20 70 -20 17
0 47 -9 68 -20 21 -11 61 -25 90 -31 28 -6 64 -18 79 -25 15 -8 51 -19 80 -25
29 -6 63 -17 75 -25 13 -8 59 -21 104 -29 44 -7 86 -19 93 -25 8 -6 48 -17 90
-25 43 -8 86 -19 96 -25 10 -5 51 -17 90 -25 39 -8 80 -20 91 -26 11 -5 53
-17 95 -24 41 -8 87 -21 103 -30 16 -8 61 -20 101 -26 40 -6 87 -17 106 -25
19 -8 68 -19 109 -25 41 -5 90 -16 108 -24 18 -7 67 -18 110 -24 42 -6 94 -18
114 -26 21 -9 71 -20 113 -26 41 -5 100 -18 130 -28 30 -10 82 -22 115 -26 33
-3 83 -13 110 -21 28 -8 93 -19 145 -25 52 -6 124 -19 160 -29 36 -10 102 -21
147 -24 45 -4 101 -13 125 -22 24 -8 95 -22 158 -29 63 -8 131 -19 150 -25 19
-6 109 -17 200 -25 91 -9 181 -20 200 -26 19 -6 109 -17 201 -24 91 -8 192
-21 224 -30 32 -8 140 -19 240 -25 189 -10 245 -15 360 -31 39 -5 165 -13 280
-19 116 -5 272 -16 347 -24 302 -33 2261 -33 2305 -1 17 13 18 64 18 973 0
528 -4 964 -8 968 -4 5 -153 12 -330 16 -177 4 -398 12 -492 17 -288 18 -341
21 -640 31 -159 6 -346 17 -415 26 -69 8 -249 19 -400 24 -175 6 -304 15 -355
24 -44 9 -161 21 -260 27 -99 6 -225 17 -280 25 -55 8 -172 19 -260 24 -88 6
-203 19 -255 29 -52 11 -141 22 -197 26 -57 3 -124 12 -150 20 -27 8 -118 22
-203 30 -85 9 -168 20 -184 25 -17 6 -89 17 -160 25 -72 8 -152 21 -177 29
-25 8 -77 17 -115 21 -38 4 -95 16 -127 26 -31 10 -97 23 -145 29 -48 6 -105
18 -127 25 -22 8 -78 19 -125 25 -47 6 -103 17 -125 25 -23 7 -76 18 -118 24
-43 6 -90 17 -105 25 -15 8 -65 21 -111 30 -46 8 -88 20 -95 25 -6 5 -40 14
-76 21 -36 6 -87 19 -115 29 -27 10 -72 22 -100 26 -27 4 -68 15 -90 25 -22 9
-64 21 -94 24 -30 4 -73 15 -95 25 -23 10 -63 22 -91 26 -27 4 -65 15 -85 25
-19 9 -53 20 -75 24 -22 4 -54 15 -70 25 -17 10 -50 21 -74 25 -24 4 -67 18
-96 31 -28 14 -60 25 -69 25 -9 0 -43 11 -76 25 -33 14 -68 25 -78 25 -10 0
-35 9 -56 19 -21 11 -61 25 -89 31 -29 6 -62 17 -74 25 -12 9 -50 21 -83 29
-34 8 -67 19 -73 24 -7 6 -32 15 -57 22 -25 7 -52 18 -60 25 -8 7 -34 18 -58
25 -23 6 -64 22 -89 35 -25 14 -53 25 -62 25 -9 0 -29 9 -46 20 -16 11 -37 20
-46 20 -9 0 -37 11 -63 25 -26 14 -53 25 -60 25 -7 0 -38 14 -69 30 -31 17
-64 30 -73 30 -9 0 -33 9 -53 20 -33 18 -89 41 -186 77 -22 8 -53 23 -70 32
-16 10 -45 21 -63 25 -19 3 -45 15 -59 26 -14 11 -33 20 -42 20 -9 0 -34 9
-55 20 -22 11 -61 27 -88 36 -26 8 -48 19 -48 24 0 5 -15 11 -32 15 -18 4 -55
17 -83 30 -27 13 -84 38 -125 55 -41 16 -92 39 -112 50 -20 11 -43 20 -51 20
-8 0 -34 11 -58 23 -24 13 -62 30 -84 37 -22 7 -53 21 -70 31 -16 11 -37 19
-45 19 -8 0 -31 8 -50 19 -19 10 -53 24 -75 31 -22 7 -47 18 -55 25 -8 7 -26
16 -40 19 -23 7 -54 21 -199 90 -30 14 -60 26 -67 26 -6 0 -17 7 -24 15 -7 8
-31 20 -53 26 -23 6 -51 19 -64 29 -12 9 -43 23 -68 30 -25 7 -45 16 -45 21 0
4 -19 14 -42 20 -24 7 -50 19 -59 26 -9 8 -34 19 -55 25 -21 5 -54 21 -73 34
-20 13 -42 24 -49 24 -8 0 -35 11 -61 24 -67 35 -152 73 -181 81 -13 4 -30 14
-37 21 -8 7 -33 19 -56 26 -23 6 -53 20 -66 30 -13 10 -28 18 -34 18 -5 0 -35
12 -66 26 -139 65 -187 88 -201 96 -8 5 -31 16 -50 24 -45 20 -167 81 -200
100 -14 7 -33 14 -42 14 -9 0 -20 4 -23 10 -5 8 -82 47 -195 98 -14 7 -32 16
-40 22 -8 5 -31 16 -50 25 -19 8 -46 21 -60 29 -37 20 -131 65 -160 76 -14 5
-32 14 -40 20 -8 5 -31 16 -50 25 -19 8 -46 22 -60 30 -14 8 -41 22 -60 30
-19 8 -42 19 -50 24 -8 5 -46 24 -85 41 -38 17 -77 36 -85 41 -15 9 -50 26
-100 48 -14 6 -32 15 -40 20 -8 6 -51 28 -95 49 -44 22 -105 54 -135 70 -30
17 -78 42 -106 55 -28 14 -54 29 -58 35 -3 6 -19 13 -35 17 -16 3 -37 15 -47
26 -9 10 -24 19 -33 19 -9 0 -32 10 -51 22 -33 21 -137 78 -245 133 -27 15
-72 39 -100 55 -27 16 -61 34 -75 39 -14 6 -32 15 -40 21 -8 6 -38 21 -66 34
-28 13 -54 28 -58 34 -3 6 -23 16 -44 23 -20 6 -46 19 -57 29 -11 10 -31 21
-45 25 -14 4 -31 13 -39 19 -15 12 -69 41 -141 77 -25 12 -47 26 -50 30 -3 5
-22 15 -42 23 -20 9 -39 20 -43 26 -3 5 -26 18 -50 29 -25 11 -45 24 -45 30 0
5 -13 12 -29 16 -16 3 -35 13 -42 21 -7 9 -30 25 -52 37 -21 12 -52 29 -68 38
-16 9 -36 22 -44 29 -8 7 -28 20 -44 29 -63 36 -96 58 -153 103 -33 26 -68 50
-79 53 -10 4 -19 10 -19 15 0 5 -17 18 -37 29 -21 11 -52 34 -70 53 l-31 33
-10 690 c-5 380 -7 695 -5 702 14 35 95 5 333 -122 14 -8 81 -41 150 -75 69
-34 136 -68 150 -75 87 -46 357 -175 366 -175 7 0 17 -7 24 -14 6 -8 33 -23
58 -32 26 -10 49 -21 52 -24 3 -3 41 -23 85 -44 44 -20 91 -44 105 -52 14 -8
41 -22 60 -30 19 -8 42 -19 50 -24 8 -5 49 -25 90 -45 41 -20 86 -43 100 -50
14 -8 36 -19 50 -26 14 -6 36 -17 50 -25 14 -7 41 -21 60 -29 19 -9 42 -20 50
-25 8 -6 31 -17 50 -25 19 -9 42 -20 50 -25 8 -6 26 -15 40 -21 14 -6 36 -17
50 -25 14 -7 41 -21 60 -29 53 -24 74 -34 90 -45 8 -5 31 -16 50 -25 19 -8 42
-19 50 -25 8 -5 31 -16 50 -25 19 -8 42 -19 50 -24 8 -5 53 -28 100 -51 47
-22 92 -45 100 -50 8 -5 31 -16 50 -25 19 -8 46 -22 60 -30 14 -8 41 -22 60
-30 19 -8 42 -19 50 -24 8 -5 53 -28 100 -51 47 -23 96 -48 110 -56 14 -7 32
-14 41 -14 9 0 24 -9 34 -20 10 -11 23 -20 30 -20 7 0 32 -11 57 -24 24 -13
55 -27 69 -31 13 -4 35 -15 49 -25 14 -10 36 -20 50 -24 14 -4 48 -17 75 -30
28 -13 70 -32 95 -44 25 -11 74 -33 110 -50 36 -16 77 -32 92 -36 15 -3 33
-12 40 -20 7 -7 31 -19 53 -26 22 -7 49 -18 60 -25 11 -6 38 -18 60 -25 22 -7
47 -18 55 -25 8 -8 29 -17 45 -21 17 -4 54 -20 84 -35 30 -16 60 -29 68 -29 8
0 26 -9 40 -20 14 -11 32 -20 40 -20 15 0 116 -44 194 -86 26 -13 56 -24 67
-24 10 0 30 -9 44 -19 13 -11 38 -23 54 -27 16 -4 49 -18 73 -31 24 -12 51
-23 59 -23 8 0 34 -11 56 -24 23 -13 56 -26 75 -30 19 -3 42 -13 50 -20 9 -8
36 -19 61 -26 25 -6 59 -20 76 -31 17 -10 38 -19 46 -19 8 0 35 -10 59 -23 24
-13 59 -27 78 -30 19 -4 42 -13 50 -21 9 -7 39 -21 67 -30 28 -9 68 -25 90
-36 21 -11 45 -20 54 -20 8 0 29 -9 45 -20 17 -11 37 -20 46 -20 9 0 37 -11
62 -25 25 -13 66 -29 89 -35 24 -7 50 -18 58 -25 8 -7 28 -15 45 -19 16 -4 52
-18 81 -32 28 -13 57 -24 64 -24 7 0 32 -11 54 -24 23 -13 59 -27 81 -31 22
-4 45 -11 51 -16 11 -9 121 -49 215 -77 31 -9 63 -22 71 -29 8 -7 38 -18 67
-24 30 -6 68 -19 85 -29 17 -10 47 -21 66 -25 19 -4 45 -13 57 -21 11 -7 43
-18 70 -25 26 -6 62 -19 79 -29 16 -9 48 -20 70 -24 21 -4 55 -16 74 -27 19
-11 58 -26 85 -33 71 -21 166 -54 195 -70 14 -7 48 -19 75 -25 28 -7 60 -19
72 -27 13 -8 51 -21 85 -28 35 -8 83 -21 108 -30 85 -29 145 -47 215 -65 39
-10 84 -25 100 -33 17 -9 53 -19 80 -23 28 -4 61 -14 75 -21 24 -14 97 -35
235 -70 33 -9 80 -24 105 -35 25 -11 69 -24 99 -29 30 -6 59 -14 66 -20 6 -5
42 -17 80 -25 38 -9 80 -22 95 -30 14 -7 54 -18 88 -25 34 -6 81 -20 104 -30
24 -11 61 -20 83 -20 22 -1 58 -8 80 -16 22 -9 76 -24 120 -34 44 -9 102 -24
128 -33 26 -10 59 -17 73 -17 14 0 58 -11 97 -24 40 -13 101 -27 136 -31 35
-3 80 -13 100 -21 20 -8 84 -23 141 -34 148 -27 293 -58 380 -80 19 -5 74 -14
122 -20 48 -6 104 -17 126 -24 21 -8 90 -19 152 -26 62 -7 130 -18 151 -25 21
-8 81 -19 133 -24 52 -6 123 -17 158 -25 35 -8 124 -20 199 -26 75 -6 160 -18
190 -26 30 -8 115 -19 189 -24 74 -5 173 -17 220 -25 47 -8 168 -20 270 -26
102 -5 235 -17 295 -25 61 -8 270 -19 465 -24 195 -6 380 -11 410 -13 114 -6
1292 12 1460 23 150 9 177 14 191 30 14 16 17 73 22 417 4 219 11 517 16 663
18 469 20 738 6 757 -16 21 -164 29 -755 37 -459 6 -894 22 -990 36 -36 5
-162 14 -280 20 -201 10 -365 26 -382 36 -4 3 -99 11 -211 19 -112 8 -235 21
-273 29 -38 8 -135 19 -216 26 -81 6 -169 17 -195 25 -27 8 -99 19 -160 25
-62 6 -139 17 -170 25 -32 8 -107 19 -168 25 -60 6 -133 17 -161 25 -28 8 -95
19 -150 25 -54 6 -126 19 -159 29 -33 10 -91 22 -129 26 -38 4 -86 13 -108 21
-21 7 -78 19 -126 25 -48 6 -112 20 -144 30 -31 9 -89 21 -130 25 -40 3 -88
13 -107 21 -19 7 -73 20 -120 27 -47 8 -99 20 -116 26 -16 6 -65 18 -107 25
-42 8 -89 20 -105 28 -15 8 -57 18 -93 22 -36 4 -85 16 -110 26 -25 10 -76 23
-114 29 -38 6 -83 17 -101 24 -18 8 -65 19 -105 25 -40 6 -84 17 -98 25 -15 7
-56 19 -91 25 -35 7 -74 19 -85 26 -12 7 -50 19 -86 26 -36 6 -77 18 -93 26
-15 8 -53 19 -85 24 -31 6 -68 17 -82 24 -14 7 -54 19 -90 25 -36 7 -75 19
-88 27 -13 8 -53 20 -90 28 -37 8 -92 23 -122 34 -30 11 -63 20 -73 21 -10 0
-34 8 -55 19 -20 10 -59 23 -87 29 -27 6 -68 20 -90 32 -21 11 -51 20 -65 20
-14 0 -41 8 -60 19 -19 10 -60 24 -90 31 -30 7 -64 18 -75 25 -11 7 -44 17
-72 23 -29 7 -69 21 -90 32 -21 11 -49 20 -63 20 -14 0 -47 11 -75 25 -27 13
-59 25 -70 25 -11 0 -44 11 -73 25 -30 14 -62 25 -72 25 -9 0 -38 11 -64 25
-26 14 -55 25 -64 25 -10 0 -36 9 -57 20 -22 11 -62 27 -90 35 -27 8 -63 21
-80 29 -16 8 -52 22 -80 31 -120 40 -143 48 -190 70 -27 13 -66 27 -85 30 -19
4 -42 13 -50 20 -8 7 -28 15 -45 19 -16 4 -52 18 -81 32 -28 13 -56 24 -63 24
-7 0 -31 11 -54 24 -23 13 -57 26 -76 30 -19 3 -41 12 -49 19 -14 12 -89 42
-182 74 -25 9 -52 22 -60 29 -8 6 -34 17 -58 24 -23 6 -64 22 -89 35 -25 14
-53 25 -62 25 -9 0 -27 7 -39 16 -12 8 -44 22 -71 30 -27 8 -54 21 -61 29 -7
8 -20 15 -30 15 -9 0 -41 13 -71 29 -30 15 -67 31 -84 35 -16 4 -37 13 -45 21
-8 7 -33 18 -55 25 -22 7 -47 18 -55 25 -8 7 -34 18 -56 24 -23 6 -47 17 -53
25 -6 7 -33 19 -59 26 -26 8 -58 22 -71 32 -13 10 -31 18 -39 18 -8 0 -34 11
-56 24 -23 13 -54 26 -70 30 -16 4 -40 16 -53 26 -13 10 -38 22 -56 26 -18 3
-43 15 -56 25 -13 11 -28 19 -33 19 -10 0 -132 55 -158 71 -8 5 -31 16 -50 25
-19 9 -80 39 -135 66 -55 26 -105 48 -111 48 -5 0 -25 11 -43 24 -18 13 -47
27 -66 30 -18 4 -38 13 -45 21 -6 8 -28 19 -48 26 -20 6 -49 20 -64 30 -14 11
-33 19 -41 19 -8 0 -25 8 -38 19 -13 10 -41 24 -61 30 -21 7 -40 16 -43 21 -3
5 -72 42 -153 83 -140 70 -199 100 -232 119 -8 4 -60 31 -115 59 -55 28 -111
56 -125 64 -14 7 -36 18 -50 25 -14 6 -47 24 -75 40 -55 32 -113 60 -125 60
-4 0 -13 7 -20 14 -6 8 -28 20 -48 27 -20 6 -46 19 -57 29 -11 10 -37 23 -57
29 -20 7 -42 18 -48 26 -6 7 -25 17 -41 20 -16 4 -31 11 -35 16 -3 6 -29 21
-57 35 -71 34 -107 52 -137 69 -14 7 -68 35 -120 61 -52 25 -102 52 -110 59
-8 7 -26 16 -40 20 -14 4 -32 13 -40 20 -8 7 -51 32 -95 55 -44 23 -87 47 -95
55 -8 7 -26 16 -40 20 -14 4 -34 15 -45 25 -11 10 -31 21 -44 25 -12 4 -39 18
-58 31 -20 13 -41 24 -48 24 -6 0 -20 9 -29 19 -10 11 -31 23 -46 26 -16 3
-34 13 -41 21 -6 8 -30 23 -53 34 -82 41 -121 62 -136 75 -8 7 -26 16 -40 20
-14 4 -34 15 -45 24 -11 10 -54 34 -95 55 -41 21 -82 44 -90 50 -8 7 -34 21
-57 31 -24 10 -43 21 -43 26 0 4 -20 15 -45 25 -25 9 -45 20 -45 24 0 4 -17
15 -37 24 -21 9 -60 30 -88 46 -27 16 -72 41 -100 55 -27 15 -72 39 -100 55
-27 16 -68 38 -90 48 -22 11 -46 27 -54 36 -7 9 -21 16 -29 16 -9 0 -34 12
-56 27 -23 14 -57 36 -76 48 -19 12 -48 30 -64 41 -36 24 -88 55 -146 89 -25
14 -65 39 -90 55 -25 16 -58 36 -75 45 -30 15 -79 48 -125 83 -14 11 -35 22
-47 26 -13 4 -23 11 -23 15 0 4 -18 16 -40 26 -22 10 -40 22 -40 26 0 5 -15
16 -32 25 -29 14 -81 47 -209 131 -19 12 -40 23 -45 23 -6 0 -20 9 -31 19 -12
11 -37 28 -56 38 -40 21 -115 63 -172 98 -22 13 -60 35 -85 50 -25 14 -67 39
-95 56 -27 16 -57 32 -65 35 -8 3 -42 19 -75 34 -33 16 -91 42 -130 60 -38 17
-87 40 -107 50 -37 20 -88 26 -102 13z"/>
<path fill="#b71a1f" d="M43505 23118 c-22 -6 -60 -19 -85 -29 -25 -10 -65 -23 -90 -29 -25
-5 -63 -18 -85 -30 -21 -11 -52 -20 -68 -20 -15 0 -45 -9 -67 -20 -21 -11 -59
-24 -85 -30 -26 -6 -67 -20 -91 -30 -23 -11 -53 -20 -66 -20 -13 0 -42 -9 -63
-21 -22 -11 -65 -25 -95 -30 -30 -6 -66 -18 -79 -26 -13 -9 -51 -22 -84 -30
-34 -7 -66 -18 -71 -23 -6 -4 -42 -16 -79 -24 -37 -9 -77 -22 -90 -30 -12 -8
-44 -17 -72 -21 -27 -4 -65 -15 -85 -25 -19 -10 -62 -23 -95 -30 -32 -7 -68
-18 -80 -25 -11 -7 -44 -18 -73 -24 -29 -6 -65 -17 -80 -25 -15 -8 -53 -19
-83 -24 -31 -6 -74 -20 -95 -31 -21 -10 -59 -22 -84 -26 -25 -4 -54 -13 -65
-20 -12 -7 -47 -18 -79 -25 -32 -6 -77 -20 -99 -31 -23 -10 -52 -19 -65 -19
-12 0 -48 -11 -80 -24 -31 -13 -79 -27 -107 -32 -27 -4 -66 -15 -85 -25 -19
-9 -55 -20 -80 -24 -25 -4 -57 -14 -72 -21 -15 -8 -59 -21 -98 -29 -40 -8 -81
-22 -93 -30 -12 -8 -35 -15 -52 -15 -16 -1 -55 -10 -85 -21 -30 -11 -84 -27
-119 -35 -35 -8 -75 -21 -90 -28 -14 -7 -50 -19 -79 -25 -29 -6 -65 -17 -80
-25 -15 -8 -50 -17 -77 -21 -28 -4 -75 -18 -105 -30 -30 -12 -79 -25 -109 -29
-29 -4 -63 -13 -75 -21 -11 -7 -50 -19 -86 -25 -35 -6 -76 -18 -90 -25 -14 -7
-55 -19 -90 -25 -35 -6 -77 -18 -93 -26 -16 -9 -61 -21 -100 -29 -40 -8 -86
-21 -102 -29 -17 -9 -41 -16 -55 -16 -14 0 -56 -11 -94 -25 -38 -13 -90 -27
-115 -31 -25 -4 -62 -15 -81 -24 -19 -10 -67 -23 -106 -29 -39 -6 -84 -17
-100 -26 -16 -8 -49 -17 -74 -20 -25 -4 -70 -15 -100 -25 -30 -10 -84 -24
-119 -30 -35 -6 -73 -18 -85 -25 -12 -8 -54 -19 -94 -25 -40 -5 -85 -16 -101
-24 -15 -8 -56 -20 -91 -26 -36 -6 -80 -18 -98 -25 -18 -8 -61 -19 -95 -25
-34 -6 -83 -20 -109 -30 -26 -11 -61 -20 -78 -20 -17 0 -64 -11 -103 -24 -40
-13 -94 -27 -122 -31 -27 -4 -75 -15 -105 -25 -30 -11 -77 -22 -105 -26 -27
-3 -63 -12 -80 -20 -16 -7 -70 -20 -119 -29 -49 -9 -101 -22 -115 -30 -14 -7
-58 -18 -97 -24 -39 -6 -86 -17 -105 -25 -19 -7 -64 -19 -101 -25 -36 -6 -81
-18 -100 -25 -18 -8 -68 -19 -111 -25 -43 -6 -90 -17 -106 -25 -15 -8 -65 -20
-109 -25 -45 -6 -94 -17 -109 -25 -16 -7 -63 -19 -107 -26 -43 -6 -97 -18
-119 -26 -22 -8 -72 -19 -111 -25 -39 -6 -87 -18 -106 -26 -19 -8 -71 -19
-114 -24 -43 -6 -91 -16 -106 -24 -16 -8 -61 -19 -102 -26 -40 -6 -100 -19
-133 -28 -33 -10 -87 -22 -120 -25 -33 -4 -85 -15 -115 -25 -30 -10 -86 -22
-125 -26 -38 -4 -86 -13 -105 -21 -19 -8 -80 -22 -135 -30 -55 -9 -118 -22
-140 -29 -22 -8 -75 -19 -118 -25 -43 -7 -93 -17 -110 -25 -18 -7 -59 -16 -92
-20 -33 -3 -71 -14 -84 -22 l-24 -16 6 -466 c23 -1646 36 -3326 39 -5206 2
-1018 6 -1519 27 -3120 6 -451 13 -1614 17 -2585 3 -971 7 -1771 9 -1777 6
-19 77 -16 142 6 32 11 100 25 152 31 51 6 102 15 113 21 10 6 66 16 124 24
58 7 124 20 147 29 23 8 85 20 138 25 53 6 112 17 131 26 20 8 78 19 129 25
52 6 114 18 139 25 25 8 81 20 124 26 44 6 96 17 115 24 20 8 74 19 121 25 47
6 108 19 135 29 28 10 83 22 124 26 41 4 89 13 107 21 18 7 65 18 106 24 40 6
105 20 143 30 39 10 95 21 125 25 30 4 81 15 113 26 32 11 86 22 120 26 34 3
83 14 108 24 25 9 81 22 123 28 43 6 87 16 98 22 11 6 61 17 111 25 49 8 102
21 116 28 14 7 64 19 111 26 46 6 97 18 112 26 15 8 57 18 95 24 37 5 97 18
132 30 35 11 77 20 93 20 16 0 55 9 87 20 32 10 88 24 126 30 37 6 81 18 97
26 16 8 65 21 108 29 44 8 88 18 98 24 10 5 55 16 100 25 46 9 91 20 100 25
10 5 55 16 100 25 45 9 95 22 111 31 16 8 56 18 88 21 32 4 76 14 98 24 22 10
71 23 109 29 38 7 78 16 87 22 10 5 53 16 96 25 42 9 87 22 98 30 11 7 50 18
85 23 36 5 85 18 110 29 25 11 68 23 95 27 28 4 55 11 61 16 7 5 45 16 85 25
40 8 93 23 118 34 25 10 68 22 96 25 27 4 62 13 77 21 15 8 59 21 98 29 39 8
80 20 90 25 10 5 51 17 90 25 39 8 80 21 93 29 12 8 44 17 72 21 27 4 65 15
85 25 19 10 62 23 95 30 33 7 65 16 71 21 6 5 41 16 79 24 38 9 78 21 89 27
12 6 50 18 86 25 35 8 74 20 86 27 11 8 50 20 85 27 35 7 73 18 84 25 11 7 45
18 75 24 30 6 69 18 85 25 17 8 52 19 79 25 26 6 64 19 84 29 21 10 57 22 82
26 25 4 55 13 66 20 12 8 50 21 85 30 35 9 69 20 74 25 6 5 39 16 74 25 35 9
73 22 85 30 11 7 41 16 66 20 25 4 59 15 75 25 17 10 48 22 70 25 22 4 66 18
97 31 32 13 65 24 75 24 10 0 32 7 48 16 17 9 57 23 89 30 33 8 65 19 71 24
11 9 89 38 218 80 32 10 64 23 70 28 7 5 35 15 62 21 28 7 64 21 80 31 17 10
48 21 70 25 22 4 49 13 60 20 11 7 47 20 80 30 33 9 65 20 70 25 6 4 37 15 69
24 32 10 68 24 80 31 12 8 41 18 67 24 25 6 65 22 90 36 l46 25 6 3982 c10
5925 9 9186 -3 9209 -12 21 -16 21 -75 7z m-1939 -2682 c18 -14 19 -35 25
-583 3 -312 6 -995 8 -1518 1 -522 3 -972 5 -1000 2 -27 4 -421 6 -875 4 -980
16 -2101 24 -2255 3 -60 9 -736 12 -1500 8 -1578 18 -1415 -84 -1435 -31 -7
-59 -16 -62 -21 -3 -5 -35 -16 -70 -25 -36 -9 -70 -20 -76 -25 -6 -5 -39 -15
-75 -23 -35 -9 -82 -25 -104 -36 -21 -11 -50 -20 -64 -20 -14 0 -43 -9 -65
-19 -23 -11 -66 -26 -96 -35 -67 -18 -138 -42 -205 -68 -27 -11 -72 -24 -100
-30 -27 -5 -60 -16 -72 -24 -12 -8 -49 -20 -81 -28 -32 -7 -69 -19 -82 -26
-13 -7 -50 -19 -82 -26 -32 -8 -69 -20 -81 -28 -12 -8 -44 -17 -72 -21 -27 -3
-66 -14 -85 -24 -19 -10 -64 -23 -100 -30 -36 -7 -76 -19 -90 -26 -14 -7 -51
-18 -82 -24 -32 -5 -70 -16 -85 -24 -16 -8 -57 -20 -92 -26 -35 -7 -74 -19
-85 -26 -12 -7 -48 -18 -81 -25 -33 -6 -81 -20 -107 -31 -26 -10 -56 -19 -68
-19 -11 0 -51 -11 -88 -23 -37 -13 -85 -27 -107 -31 -22 -4 -58 -16 -80 -26
-22 -10 -62 -21 -90 -25 -27 -4 -63 -14 -78 -22 -16 -8 -61 -20 -100 -28 -40
-8 -88 -20 -107 -28 -19 -8 -59 -18 -89 -22 -29 -4 -72 -15 -95 -25 -22 -10
-70 -23 -106 -29 -36 -5 -92 -19 -125 -29 -33 -11 -82 -25 -110 -30 -86 -18
-178 -42 -240 -62 -33 -11 -91 -24 -128 -30 -38 -6 -78 -17 -90 -25 -12 -8
-53 -19 -91 -25 -38 -6 -84 -17 -104 -26 -19 -8 -67 -19 -106 -25 -39 -6 -86
-17 -103 -24 -18 -8 -66 -18 -105 -24 -40 -6 -98 -19 -129 -29 -30 -11 -84
-23 -120 -27 -35 -4 -79 -13 -96 -21 -18 -7 -74 -20 -124 -29 -50 -8 -99 -20
-108 -25 -10 -5 -62 -16 -115 -25 -54 -8 -110 -21 -124 -29 -15 -8 -67 -19
-116 -25 -49 -6 -95 -16 -102 -22 -7 -6 -53 -17 -101 -24 -49 -7 -95 -16 -103
-19 -8 -3 -22 -1 -30 4 -13 8 -15 528 -11 4602 3 4219 5 4594 20 4611 24 28
42 35 117 47 38 6 88 18 112 25 23 8 75 20 115 26 39 6 92 19 117 29 25 9 73
20 107 23 35 4 79 13 99 22 20 8 77 22 127 30 50 9 98 20 106 25 9 4 57 15
106 24 50 8 106 22 125 29 19 8 64 18 99 21 35 4 84 15 110 25 25 10 77 24
115 30 38 7 78 17 89 23 11 5 55 16 98 24 44 7 92 20 107 28 15 8 54 17 87 21
33 4 80 16 104 26 24 11 76 24 115 30 39 6 83 17 97 25 15 7 57 18 94 24 37 6
82 17 100 24 17 8 65 19 105 26 40 7 91 20 114 30 22 10 68 22 101 25 33 4 72
14 87 21 15 8 59 21 98 29 39 8 80 20 90 25 10 6 53 17 94 24 41 8 85 22 98
30 13 8 48 18 78 22 30 3 74 15 98 25 24 10 71 23 105 29 33 7 73 18 87 25 14
7 48 16 75 20 28 4 70 16 94 26 24 11 73 24 110 30 36 5 75 16 87 24 12 7 50
19 85 25 35 7 80 18 99 27 19 8 62 19 95 24 33 6 69 16 81 24 12 7 50 19 85
25 35 6 74 18 86 26 12 8 46 19 75 25 29 6 85 22 125 35 39 13 80 24 90 24 10
0 31 7 48 16 16 8 60 22 98 30 37 7 80 20 95 28 15 7 54 19 87 26 33 7 71 18
85 25 14 7 52 18 84 24 32 6 64 16 71 21 7 6 46 17 86 26 41 8 84 21 96 29 11
8 49 19 82 24 33 5 69 14 78 20 25 14 46 13 69 -3z"/>

<path fill="#b71a1f" d="M32345 20200 c-33 -4 -81 -14 -106 -23 -25 -9 -75 -19 -110 -22 -35
-4 -95 -15 -134 -26 -38 -10 -109 -23 -157 -29 -47 -6 -102 -17 -122 -25 -20
-8 -78 -19 -129 -25 -51 -5 -112 -16 -136 -25 -23 -8 -80 -19 -126 -25 -45 -6
-105 -17 -131 -25 -27 -8 -89 -20 -139 -26 -49 -6 -106 -17 -125 -25 -19 -7
-76 -18 -126 -24 -51 -5 -111 -17 -135 -25 -24 -9 -92 -23 -152 -31 -59 -8
-120 -19 -134 -25 -14 -5 -72 -16 -129 -24 -58 -8 -112 -19 -122 -24 -9 -5
-62 -15 -117 -21 -55 -7 -125 -21 -157 -31 -31 -10 -89 -21 -130 -24 -40 -4
-102 -15 -138 -25 -36 -11 -101 -24 -145 -29 -45 -6 -93 -15 -109 -20 -15 -6
-81 -18 -147 -26 -65 -9 -134 -22 -153 -30 -19 -8 -78 -19 -133 -24 -54 -5
-118 -17 -142 -25 -24 -9 -85 -21 -135 -26 -50 -6 -112 -17 -138 -25 -26 -8
-94 -19 -150 -26 -57 -6 -121 -18 -143 -26 -22 -8 -85 -18 -140 -23 -55 -5
-134 -18 -175 -28 -41 -11 -122 -25 -179 -31 -56 -7 -114 -16 -127 -21 -13 -5
-82 -16 -153 -24 -70 -9 -141 -20 -157 -26 -16 -7 -89 -18 -162 -25 -73 -8
-141 -19 -151 -25 -11 -5 -79 -17 -153 -26 -73 -8 -155 -22 -183 -29 -27 -8
-100 -19 -160 -25 -61 -5 -126 -15 -145 -21 -19 -6 -96 -17 -170 -24 -74 -8
-162 -21 -195 -30 -33 -8 -112 -20 -175 -25 -63 -6 -142 -17 -175 -25 -33 -8
-109 -19 -170 -25 -60 -6 -145 -17 -187 -25 -43 -8 -140 -19 -215 -25 -76 -6
-165 -18 -198 -26 -33 -8 -136 -21 -230 -29 -93 -8 -186 -19 -205 -25 -19 -6
-93 -15 -165 -21 -71 -5 -184 -18 -250 -29 -66 -10 -160 -21 -210 -25 -49 -3
-139 -15 -200 -25 -60 -10 -180 -23 -265 -29 -85 -6 -171 -15 -190 -21 -19 -5
-98 -15 -175 -21 -77 -6 -187 -17 -245 -26 -58 -8 -181 -21 -275 -29 -93 -7
-208 -20 -255 -29 -47 -8 -155 -19 -241 -25 -86 -5 -185 -16 -220 -24 -35 -9
-135 -20 -221 -26 -87 -6 -195 -17 -240 -25 -46 -8 -152 -19 -236 -25 -84 -6
-176 -15 -205 -21 -29 -6 -87 -14 -130 -19 -43 -4 -83 -12 -89 -18 -6 -6 -15
-68 -20 -138 -5 -70 -13 -145 -18 -168 -5 -22 -14 -225 -20 -451 -6 -225 -15
-563 -20 -750 -8 -312 -7 -341 8 -353 20 -17 239 -10 422 13 63 8 241 19 394
25 154 6 330 18 390 26 61 8 208 19 326 24 317 14 411 21 452 31 20 5 108 16
196 24 87 8 171 19 187 24 17 6 107 17 200 26 94 8 194 22 223 30 29 8 103 17
165 20 61 4 155 15 207 25 52 11 151 24 220 30 69 6 159 17 200 25 41 8 132
19 201 25 69 5 153 16 185 25 33 8 122 19 199 24 77 6 167 17 200 25 72 19
149 21 163 3 14 -16 20 -389 27 -1597 5 -848 18 -1849 30 -2220 2 -96 7 -501
10 -900 12 -1788 17 -2232 26 -2635 12 -554 27 -1849 31 -2640 1 -341 5 -764
8 -939 l5 -320 25 -6 c33 -9 315 14 405 33 39 9 119 18 180 22 60 4 133 13
163 21 29 8 112 21 185 29 73 8 152 21 177 28 25 8 88 17 140 21 52 4 127 15
165 26 39 11 109 24 157 29 47 6 110 17 140 25 29 8 95 20 147 26 51 7 107 18
125 25 17 7 63 16 101 20 39 4 103 18 143 31 40 13 87 24 105 24 18 0 57 7 87
16 30 8 82 21 115 28 l60 12 1 485 c0 266 -3 639 -6 829 -16 817 -31 1870 -40
2890 -6 602 -15 1221 -20 1375 -13 422 -19 827 -25 1720 -8 1235 -15 1811 -25
2140 -6 165 -14 640 -19 1055 -8 638 -7 759 5 782 16 30 59 42 198 53 44 4 96
13 117 20 21 8 85 19 141 25 57 6 128 18 158 25 31 8 101 19 155 25 55 6 120
17 145 25 25 8 101 21 170 29 69 8 137 19 153 25 15 6 69 15 120 21 50 6 135
19 187 30 52 10 124 22 160 25 36 4 99 15 141 25 42 11 124 24 183 29 58 6
115 15 125 20 10 6 61 15 112 21 52 7 135 20 184 31 50 10 133 23 185 29 52 5
115 16 140 24 25 8 95 19 157 26 62 6 130 17 152 25 22 8 87 19 143 25 57 6
130 18 163 26 32 8 103 19 157 25 53 5 115 16 137 24 21 7 77 16 123 20 45 4
128 17 183 30 55 13 136 26 180 30 44 4 104 13 132 21 29 8 107 21 174 30 67
8 129 18 138 23 9 5 45 12 81 16 36 4 75 11 88 16 l23 9 -7 972 c-4 616 -10
978 -17 986 -10 13 -11 13 -102 2z"/>

</g>
</svg>
